<?xml version="1.0" encoding="UTF-8"?>
<svg id="Layer_2" data-name="Layer 2" xmlns="http://www.w3.org/2000/svg" viewBox="0 0 23.41 23.41">
  <defs>
    <style>
      .cls-1 {
        fill: none;
        stroke: #231f20;
        stroke-miterlimit: 10;
      }
    </style>
  </defs>
  <g id="Layer_1-2" data-name="Layer 1">
    <polygon class="cls-1" points="19.49 14.93 22.71 11.71 19.49 8.49 19.49 3.93 14.93 3.93 11.71 .71 8.49 3.93 3.93 3.93 3.93 8.49 .71 11.71 3.93 14.93 3.93 19.49 8.49 19.49 11.71 22.71 14.93 19.49 19.49 19.49 19.49 14.93"/>
    <polygon class="cls-1" points="15.95 13.46 17.71 11.71 15.95 9.95 15.95 7.46 13.46 7.46 11.71 5.71 9.95 7.46 7.46 7.46 7.46 9.95 5.71 11.71 7.46 13.46 7.46 15.95 9.95 15.95 11.71 17.71 13.46 15.95 15.95 15.95 15.95 13.46"/>
  </g>
</svg>